<svg id="Group_182" data-name="Group 182" xmlns="http://www.w3.org/2000/svg" xmlns:xlink="http://www.w3.org/1999/xlink" width="214.078" height="82" viewBox="0 0 214.078 82">
  <defs>
    <clipPath id="clip-path">
      <rect id="Rectangle_94" data-name="Rectangle 94" width="214.079" height="82" fill="none"/>
    </clipPath>
    <clipPath id="clip-path-2">
      <rect id="Rectangle_95" data-name="Rectangle 95" width="68.832" height="68.831" fill="none"/>
    </clipPath>
  </defs>
  <path id="Path_62" data-name="Path 62" d="M777.27,436.453h9.4V434.9h-7.68v-6.334h7.425V427.01h-7.425v-6.172h7.68v-1.554h-9.4Z" transform="translate(-681.609 -367.682)" fill="#009a7d"/>
  <g id="Group_177" data-name="Group 177">
    <g id="Group_176" data-name="Group 176" clip-path="url(#clip-path)">
      <path id="Path_63" data-name="Path 63" d="M877.37,466.043h1.624v-7.425a4.153,4.153,0,0,1,.882-2.621,3.905,3.905,0,0,1,2.738-1.253v-1.717c-1.369.093-2.807.372-3.573,2.158h-.047v-1.833H877.37Z" transform="translate(-769.389 -397.272)" fill="#009a7d"/>
      <path id="Path_64" data-name="Path 64" d="M946.488,430.142a5.036,5.036,0,0,1-5.2,5.15,5.2,5.2,0,1,1,5.2-5.15m-11.809,6.311H936.3v-2.227h.047a5.959,5.959,0,0,0,4.942,2.529,6.661,6.661,0,1,0,0-13.318,5.964,5.964,0,0,0-4.942,2.552H936.3v-6.705h-1.624Z" transform="translate(-819.645 -367.681)" fill="#009a7d" fill-rule="evenodd"/>
      <path id="Path_65" data-name="Path 65" d="M1059.969,459.756a5.015,5.015,0,1,1,10.023-.139,5.015,5.015,0,1,1-10.023.139m-1.624.023a6.636,6.636,0,1,0,6.612-6.751,6.675,6.675,0,0,0-6.612,6.751" transform="translate(-928.091 -397.273)" fill="#009a7d" fill-rule="evenodd"/>
      <path id="Path_66" data-name="Path 66" d="M1186.159,466.043h1.624v-7.425a4.152,4.152,0,0,1,.882-2.621,3.906,3.906,0,0,1,2.738-1.253v-1.717c-1.369.093-2.807.372-3.573,2.158h-.046v-1.833h-1.624Z" transform="translate(-1040.175 -397.272)" fill="#009a7d"/>
      <path id="Path_67" data-name="Path 67" d="M1242.9,422.206h1.624v-2.924H1242.9Zm0,14.245h1.624V423.76H1242.9Z" transform="translate(-1089.933 -367.68)" fill="#009a7d" fill-rule="evenodd"/>
      <path id="Path_68" data-name="Path 68" d="M1272.875,462.284v.139a3.779,3.779,0,0,0,3.9,3.921,3.66,3.66,0,0,0,3.991-3.875v-.047c0-2.621-2.135-3.433-3.62-3.92-.928-.3-2.274-.766-2.274-2.112a1.88,1.88,0,0,1,1.926-1.9,1.917,1.917,0,0,1,1.9,2h1.625v-.047a3.4,3.4,0,0,0-3.457-3.41,3.459,3.459,0,0,0-3.62,3.527c0,2.389,2.065,3.086,3.364,3.526.951.394,2.529.789,2.529,2.529a2.136,2.136,0,0,1-2.367,2.274c-.58,0-2.227-.186-2.274-2.6Z" transform="translate(-1116.219 -397.272)" fill="#009a7d"/>
      <path id="Path_69" data-name="Path 69" d="M1346.8,436.453h1.624V425.224h3.039v-1.462h-3.039v-4.478H1346.8v4.478h-2.668v1.462h2.668Z" transform="translate(-1178.705 -367.682)" fill="#009a7d"/>
      <path id="Path_70" data-name="Path 70" d="M1414.23,458.827a5,5,0,0,1,9.907,0Zm11.554,1.462c0-.163.023-.3.023-.464a6.675,6.675,0,0,0-1-3.549,6.594,6.594,0,0,0-5.661-3.248,6.709,6.709,0,0,0-6.589,6.682,6.607,6.607,0,0,0,12.853,2.181H1423.7a4.812,4.812,0,0,1-4.547,2.993,5.046,5.046,0,0,1-4.919-4.594Z" transform="translate(-1238.712 -397.272)" fill="#009a7d" fill-rule="evenodd"/>
      <path id="Path_71" data-name="Path 71" d="M1540.182,466.043h1.624v-7.425a4.152,4.152,0,0,1,.882-2.621,3.905,3.905,0,0,1,2.738-1.253v-1.717c-1.369.093-2.807.372-3.573,2.158h-.047v-1.833h-1.624Z" transform="translate(-1350.627 -397.272)" fill="#009a7d"/>
      <path id="Path_72" data-name="Path 72" d="M1596.928,422.206h1.624v-2.924h-1.624Zm0,14.245h1.624V423.76h-1.624Z" transform="translate(-1400.389 -367.68)" fill="#009a7d" fill-rule="evenodd"/>
      <path id="Path_73" data-name="Path 73" d="M1631.916,459.737a5.07,5.07,0,0,1,5.2-5.243,5.2,5.2,0,0,1,0,10.394,5.036,5.036,0,0,1-5.2-5.151m11.809-6.38H1642.1v2.227h-.047a5.74,5.74,0,0,0-4.941-2.552,6.661,6.661,0,1,0,0,13.318,5.87,5.87,0,0,0,4.941-2.529h.047v2.228h1.624Z" transform="translate(-1429.647 -397.276)" fill="#009a7d" fill-rule="evenodd"/>
      <path id="Path_74" data-name="Path 74" d="M787.145,225.781a7.334,7.334,0,0,1-6.009,3.248,7.321,7.321,0,0,1-.023-14.64,7.271,7.271,0,0,1,5.963,3.132H789a8.92,8.92,0,1,0-7.842,13.062,9.091,9.091,0,0,0,7.912-4.8Z" transform="translate(-677.145 -186.641)" fill="#009a7d"/>
      <path id="Path_75" data-name="Path 75" d="M926.876,255.571a5.015,5.015,0,1,1,10.023-.139,5.015,5.015,0,1,1-10.023.139m-1.624.023a6.636,6.636,0,1,0,6.612-6.751,6.675,6.675,0,0,0-6.612,6.751" transform="translate(-811.379 -218.217)" fill="#009a7d" fill-rule="evenodd"/>
      <path id="Path_76" data-name="Path 76" d="M1045.336,258.1v.139a3.778,3.778,0,0,0,3.9,3.921,3.66,3.66,0,0,0,3.99-3.875v-.046c0-2.622-2.134-3.434-3.619-3.921-.928-.3-2.274-.766-2.274-2.111a1.88,1.88,0,0,1,1.926-1.9,1.917,1.917,0,0,1,1.9,2h1.624v-.046a3.4,3.4,0,0,0-3.457-3.41,3.459,3.459,0,0,0-3.62,3.526c0,2.39,2.065,3.086,3.364,3.526.951.395,2.529.789,2.529,2.529a2.136,2.136,0,0,1-2.367,2.274c-.58,0-2.228-.186-2.274-2.6Z" transform="translate(-916.683 -218.216)" fill="#009a7d"/>
      <path id="Path_77" data-name="Path 77" d="M1128.02,249.168H1126.4v12.691h1.625V254.5c0-2.715,1.3-4.2,3.457-4.2s3.457,1.485,3.457,4.2v7.355h1.624V254.5c0-2.715,1.3-4.2,3.457-4.2s3.457,1.485,3.457,4.2v7.355h1.624v-7.541c0-3.387-2.088-5.475-5.081-5.475a4.827,4.827,0,0,0-4.269,2.436,4.762,4.762,0,0,0-4.269-2.436,3.959,3.959,0,0,0-3.457,1.787Z" transform="translate(-987.766 -218.217)" fill="#009a7d"/>
      <path id="Path_78" data-name="Path 78" d="M1299.612,254.639a5,5,0,0,1,9.907,0Zm11.554,1.462c0-.162.023-.3.023-.464a6.679,6.679,0,0,0-1-3.55,6.6,6.6,0,0,0-5.661-3.248,6.709,6.709,0,0,0-6.589,6.682A6.607,6.607,0,0,0,1310.8,257.7h-1.717a4.811,4.811,0,0,1-4.547,2.993,5.046,5.046,0,0,1-4.919-4.594Z" transform="translate(-1138.2 -218.214)" fill="#009a7d" fill-rule="evenodd"/>
      <path id="Path_79" data-name="Path 79" d="M1418.621,232.265h1.624V221.036h3.039v-1.462h-3.039V215.1h-1.624v4.478h-2.668v1.462h2.668Z" transform="translate(-1241.688 -188.623)" fill="#009a7d"/>
      <path id="Path_80" data-name="Path 80" d="M1489.474,218.022h1.624V215.1h-1.624Zm0,14.245h1.624V219.576h-1.624Z" transform="translate(-1306.16 -188.625)" fill="#009a7d" fill-rule="evenodd"/>
      <path id="Path_81" data-name="Path 81" d="M1534,258.12a4.862,4.862,0,0,1-4.478,2.575,5.2,5.2,0,1,1,0-10.394,5.013,5.013,0,0,1,4.478,2.691h1.786a6.6,6.6,0,1,0,0,5.128Z" transform="translate(-1335.253 -218.214)" fill="#009a7d"/>
      <path id="Path_82" data-name="Path 82" d="M1649.142,218.022h1.624V215.1h-1.624Zm0,14.245h1.624V219.576h-1.624Z" transform="translate(-1446.177 -188.625)" fill="#009a7d" fill-rule="evenodd"/>
      <path id="Path_83" data-name="Path 83" d="M778.248,18.037v1.554h9.582a7.273,7.273,0,0,1-6.937,5.081,7.424,7.424,0,0,1-7.564-7.309,7.446,7.446,0,0,1,7.494-7.354,7.14,7.14,0,0,1,6.1,3.318h2a8.959,8.959,0,0,0-8.12-4.872,9.057,9.057,0,0,0-9.188,8.887,9.141,9.141,0,0,0,9.211,8.886,9.02,9.02,0,0,0,9.072-8.19Z" transform="translate(-676.647 -7.414)" fill="#009a7d"/>
      <path id="Path_84" data-name="Path 84" d="M940.712,57.67h1.624V50.245a4.155,4.155,0,0,1,.882-2.622,3.908,3.908,0,0,1,2.738-1.253V44.654c-1.369.093-2.807.371-3.573,2.158h-.047V44.979h-1.624Z" transform="translate(-824.936 -39.158)" fill="#009a7d"/>
      <path id="Path_85" data-name="Path 85" d="M1008,47.293h-1.624V54c0,2.227-.58,3.062-1.323,3.8a3.627,3.627,0,0,1-2.691,1.021,3.806,3.806,0,0,1-2.947-1.206,5.185,5.185,0,0,1-.9-3.341V47.293h-1.625V54.3A6.568,6.568,0,0,0,998,58.383a5.322,5.322,0,0,0,4.362,1.9,4.305,4.305,0,0,0,4.061-2.274h.046v1.973H1008Z" transform="translate(-874.197 -41.473)" fill="#009a7d"/>
      <path id="Path_86" data-name="Path 86" d="M1123.689,51.359a5.036,5.036,0,0,1-5.2,5.15,5.2,5.2,0,1,1,5.2-5.15M1111.88,62.125h1.624V55.443h.047a5.961,5.961,0,0,0,4.942,2.529,6.661,6.661,0,1,0,0-13.318,5.928,5.928,0,0,0-4.942,2.552h-.047V44.979h-1.624Z" transform="translate(-975.038 -39.158)" fill="#009a7d" fill-rule="evenodd"/>
      <path id="Path_87" data-name="Path 87" d="M1252.258,51.359a5.036,5.036,0,0,1-5.2,5.15,5.2,5.2,0,1,1,5.2-5.15m-11.809,10.765h1.624V55.443h.047a5.96,5.96,0,0,0,4.941,2.529,6.661,6.661,0,1,0,0-13.318,5.928,5.928,0,0,0-4.941,2.552h-.047V44.979h-1.624Z" transform="translate(-1087.783 -39.158)" fill="#009a7d" fill-rule="evenodd"/>
      <path id="Path_88" data-name="Path 88" d="M1366.493,51.382a5.015,5.015,0,1,1,10.023-.139,5.015,5.015,0,1,1-10.023.139m-1.624.023a6.636,6.636,0,1,0,6.612-6.751,6.675,6.675,0,0,0-6.612,6.751" transform="translate(-1196.891 -39.158)" fill="#009a7d" fill-rule="evenodd"/>
      <path id="Path_89" data-name="Path 89" d="M168.9,609.742a3.157,3.157,0,0,1-2.588,1.4,3.152,3.152,0,0,1-.01-6.3,3.131,3.131,0,0,1,2.568,1.349h.83a3.842,3.842,0,1,0-3.377,5.625,3.916,3.916,0,0,0,3.407-2.068Z" transform="translate(-142.462 -529.81)" fill="#009a7d"/>
      <path id="Path_90" data-name="Path 90" d="M286.163,607.951a3.172,3.172,0,1,1,3.167,3.117,3.187,3.187,0,0,1-3.167-3.117m-.74,0a3.912,3.912,0,1,0,3.907-3.867,3.9,3.9,0,0,0-3.907,3.867" transform="translate(-250.295 -529.738)" fill="#009a7d" fill-rule="evenodd"/>
      <path id="Path_91" data-name="Path 91" d="M411.228,609.543a2.164,2.164,0,0,0,2.278,2.2,2.186,2.186,0,0,0,2.228-2.168v-.01a2.148,2.148,0,0,0-1.808-2.128c-.969-.28-1.759-.49-1.759-1.389a1.29,1.29,0,0,1,1.339-1.289,1.333,1.333,0,0,1,1.309,1.339h.739a2.064,2.064,0,0,0-4.126-.02c0,1.469,1.249,1.748,1.918,1.948.5.15,1.649.439,1.649,1.578a1.514,1.514,0,0,1-3.028-.06Z" transform="translate(-360.617 -529.741)" fill="#009a7d"/>
      <path id="Path_92" data-name="Path 92" d="M513.01,612.532h.739v-6.584h.02l2.747,6.584h.63l2.768-6.584h.02v6.584h.74v-7.394h-1.139l-2.7,6.295-2.687-6.295H513.01Z" transform="translate(-449.872 -530.662)" fill="#009a7d"/>
      <path id="Path_93" data-name="Path 93" d="M644.094,612.532h4.046v-.669h-3.307v-2.728h3.2v-.669h-3.2v-2.658h3.307v-.67h-4.046Z" transform="translate(-564.823 -530.662)" fill="#009a7d"/>
      <path id="Path_94" data-name="Path 94" d="M741.077,612.532h.74v-6.724H743.5v-.67h-4.126v.67h1.7Z" transform="translate(-648.381 -530.662)" fill="#009a7d"/>
      <rect id="Rectangle_90" data-name="Rectangle 90" width="0.739" height="7.394" transform="translate(102.964 74.476)" fill="#009a7d"/>
      <path id="Path_95" data-name="Path 95" d="M915.689,609.742a3.158,3.158,0,0,1-2.588,1.4,3.152,3.152,0,0,1-.01-6.3,3.132,3.132,0,0,1,2.568,1.349h.829a3.841,3.841,0,1,0-3.377,5.625,3.914,3.914,0,0,0,3.407-2.068Z" transform="translate(-797.341 -529.81)" fill="#009a7d"/>
      <path id="Path_96" data-name="Path 96" d="M1033.269,605.977l1.419,3.4h-2.867Zm-3.577,6.554h.77l1.079-2.488h3.437l1.069,2.488h.809l-3.177-7.394h-.829Z" transform="translate(-902.965 -530.662)" fill="#009a7d" fill-rule="evenodd"/>
      <rect id="Rectangle_91" data-name="Rectangle 91" width="0.739" height="7.394" transform="translate(151.55 74.476)" fill="#009a7d"/>
      <path id="Path_97" data-name="Path 97" d="M1302.715,612.532h.74v-6.724h1.688v-.67h-4.126v.67h1.7Z" transform="translate(-1140.897 -530.662)" fill="#009a7d"/>
      <path id="Path_98" data-name="Path 98" d="M1396.628,605.977l1.419,3.4h-2.867Zm-3.577,6.554h.77l1.078-2.488h3.438l1.069,2.488h.809l-3.177-7.394h-.829Z" transform="translate(-1221.604 -530.662)" fill="#009a7d" fill-rule="evenodd"/>
      <path id="Path_99" data-name="Path 99" d="M1515.774,612.532h3.8v-.669h-3.057v-6.724h-.74Z" transform="translate(-1329.223 -530.662)" fill="#009a7d"/>
      <rect id="Rectangle_92" data-name="Rectangle 92" width="0.739" height="7.394" transform="translate(198.118 74.476)" fill="#009a7d"/>
      <path id="Path_100" data-name="Path 100" d="M1683.456,605.977l1.418,3.4h-2.867Zm-3.577,6.554h.77l1.079-2.488h3.437l1.069,2.488h.81l-3.177-7.394h-.83Z" transform="translate(-1473.131 -530.662)" fill="#009a7d" fill-rule="evenodd"/>
      <rect id="Rectangle_93" data-name="Rectangle 93" width="68.832" height="68.832" transform="translate(19.603 0.381)" fill="#009a7d"/>
    </g>
  </g>
  <g id="Group_179" data-name="Group 179" transform="translate(19.603 0.381)">
    <g id="Group_178" data-name="Group 178" clip-path="url(#clip-path-2)">
      <path id="Path_101" data-name="Path 101" d="M31.927,18.817q15.031-5.884,20.458-2.945a9.2,9.2,0,0,1,5.269,8.834q0,5.892-10.694,6.354A34.794,34.794,0,0,0,28.517,36.8Q20.766,41.91,18.444,51.984q-2.325,9.924,3.875,15.034t12.553,4.8a47.778,47.778,0,0,0,11.16-2.015A64.853,64.853,0,0,0,57.5,64.693,95.419,95.419,0,0,0,72.068,54.464q8.21-6.815-.31,1.705T56.26,70.583a72.558,72.558,0,0,1-12.4,8.524,45.436,45.436,0,0,1-10.694,3.72,48.7,48.7,0,0,1-12.709.62q-7.287-.464-13.949-7.284A23.282,23.282,0,0,1,0,59.734,42.219,42.219,0,0,1,2.945,43.77a46.364,46.364,0,0,1,8.834-12.709q5.884-6.349,20.148-12.244" transform="translate(-19.603 -13.44)" fill="#fff"/>
      <path id="Path_102" data-name="Path 102" d="M561.3,6.895a15.666,15.666,0,0,1,7.75.465q4.49,1.243,1.55,8.989-2.79,7.751-6.2,20.148a196.613,196.613,0,0,1-6.51,20.148,71.369,71.369,0,0,1-6.664,13.484q-3.72,5.579-7.129,6.044c-2.277.31-3.875.262-4.8-.155q-1.242-.77-.155-7.285T543.634,48.9q3.56-13.483,6.665-23.4t0-10.074q-2.949-.305,2.325-4.03,5.42-3.719,8.679-4.494" transform="translate(-491.943 -6.167)" fill="#fff"/>
    </g>
  </g>
  <g id="Group_181" data-name="Group 181">
    <g id="Group_180" data-name="Group 180" clip-path="url(#clip-path)">
      <rect id="Rectangle_96" data-name="Rectangle 96" width="68.832" height="68.832" transform="translate(19.603 0.381)" fill="none" stroke="#fff" stroke-width="6.185"/>
    </g>
  </g>
</svg>
