<svg xmlns="http://www.w3.org/2000/svg" xmlns:xlink="http://www.w3.org/1999/xlink" width="97.531" height="97.531" viewBox="0 0 97.531 97.531">
  <defs>
    <clipPath id="clip-path">
      <rect id="Rectangle_86" data-name="Rectangle 86" width="97.531" height="97.531" fill="none"/>
    </clipPath>
    <clipPath id="clip-path-2">
      <rect id="Rectangle_100" data-name="Rectangle 100" width="51.386" height="51.199" fill="none"/>
    </clipPath>
  </defs>
  <g id="Group_205" data-name="Group 205" transform="translate(-3.988)">
    <g id="Group_161" data-name="Group 161" transform="translate(3.988)">
      <g id="Group_160" data-name="Group 160" clip-path="url(#clip-path)">
        <path id="Path_60" data-name="Path 60" d="M138.434,96.822A47.963,47.963,0,1,1,164.31,8.468a1.524,1.524,0,0,1-1.646,2.565,44.972,44.972,0,1,0,5.619,4.261,1.524,1.524,0,1,1,1.987-2.31l.038.034a47.963,47.963,0,0,1-31.875,83.8" transform="translate(-89.669 -0.093)" fill="#0a2b18"/>
      </g>
    </g>
    <g id="Group_187" data-name="Group 187" transform="translate(26.066 22.593)" clip-path="url(#clip-path-2)">
      <path id="Path_106" data-name="Path 106" d="M78.249,117.729c-.316-.24-.613-.444-.885-.676a7.867,7.867,0,0,1-2.743-4.9,7.949,7.949,0,0,1,6.355-8.976,7.92,7.92,0,0,1,9.436,7.333,7.765,7.765,0,0,1-3.495,7.069c-.187.132-.136.187.029.258a11.125,11.125,0,0,1,2.51,1.45,11.4,11.4,0,0,1,4.328,7.4,13.026,13.026,0,0,1,.148,2.12c-.007,1.178,0,2.356,0,3.533a1.061,1.061,0,0,1-1.041,1.194,3.122,3.122,0,0,1-.4.022q-9.949,0-19.9,0a4.988,4.988,0,0,1-.674-.046,1,1,0,0,1-.872-1.01c-.01-1.545-.065-3.094.016-4.635a11.395,11.395,0,0,1,6.982-10.042c.06-.026.117-.057.2-.1m4.8,13.774c2.468.028,5.5-.048,8.529.043.235.007.32-.056.317-.3-.013-1.06,0-2.121-.01-3.182a7.6,7.6,0,0,0-.1-1.321,9.376,9.376,0,0,0-4.949-6.745,9.026,9.026,0,0,0-4.715-1.014,9.147,9.147,0,0,0-3.855.947,9.661,9.661,0,0,0-3.735,3.4,8.394,8.394,0,0,0-1.387,3.85c-.142,1.372-.036,2.753-.06,4.13,0,.175.069.239.239.232.4-.016.8-.033,1.2-.033,2.656,0,5.311,0,8.53,0m-.549-26.46a5.944,5.944,0,1,0,5.944,5.894,5.993,5.993,0,0,0-5.944-5.894" transform="translate(-56.782 -82.364)"/>
      <path id="Path_107" data-name="Path 107" d="M163.234,56.044a7.958,7.958,0,1,1,9.751-12.474A7.983,7.983,0,0,1,171.7,56.038c.369.181.71.333,1.037.51a11.37,11.37,0,0,1,6.006,8.3,10.728,10.728,0,0,1,.173,2.043c-.008,1.253,0,2.506,0,3.759a1.117,1.117,0,0,1-1.227,1.23H164.4a1.082,1.082,0,0,1-1.155-.768,1.025,1.025,0,0,1,.94-1.268c.108-.009.217-.005.326-.005h12c.353,0,.353,0,.353-.358,0-.969.012-1.938,0-2.907a9.158,9.158,0,0,0-3.1-6.894,8.928,8.928,0,0,0-5.3-2.368,9.18,9.18,0,0,0-5.252.945c-.148.078-.3.157-.446.228a.96.96,0,0,1-1.284-.371.981.981,0,0,1,.3-1.33,8.4,8.4,0,0,1,1.2-.619l.254-.121m4.24-.84a5.888,5.888,0,0,0,5.938-6.043,5.955,5.955,0,1,0-5.938,6.043" transform="translate(-127.529 -33.045)"/>
      <path id="Path_108" data-name="Path 108" d="M15.685,56.062c.466.225.892.394,1.29.622a1.1,1.1,0,0,1,.62.856.924.924,0,0,1-.418.907.955.955,0,0,1-1.022.053c-.465-.228-.925-.462-1.411-.647a9.516,9.516,0,0,0-4.339-.5A8.821,8.821,0,0,0,5.63,59.309a9.237,9.237,0,0,0-3.47,5.986,8.87,8.87,0,0,0-.094,1.372c0,.96.01,1.921-.005,2.881,0,.26.079.32.328.319q6.026-.011,12.052,0a2.266,2.266,0,0,1,.4.019,1.051,1.051,0,0,1,.891,1.027,1.1,1.1,0,0,1-1.028.99c-.1.008-.2.005-.3.005H1.4c-.1,0-.2,0-.3,0A1.048,1.048,0,0,1,.03,70.834c-.009-1.57-.073-3.145.019-4.71a11.525,11.525,0,0,1,3.038-7.2,11.25,11.25,0,0,1,3.777-2.672c.076-.035.151-.072.228-.1.167-.069.136-.127,0-.207a6.71,6.71,0,0,1-1.865-1.726,7.8,7.8,0,0,1-1.647-5.8A7.942,7.942,0,0,1,19.2,47.449a7.75,7.75,0,0,1-1.821,7.2,6.766,6.766,0,0,1-1.69,1.411M11.5,55.228a5.94,5.94,0,0,0,5.935-5.984A5.958,5.958,0,0,0,5.522,49.2a5.9,5.9,0,0,0,5.98,6.033" transform="translate(0 -33.068)"/>
      <path id="Path_109" data-name="Path 109" d="M96.481,15.923a7.9,7.9,0,0,1-7.9-7.99,7.948,7.948,0,1,1,15.9.085,7.923,7.923,0,0,1-7.993,7.905m.051-2.024a5.987,5.987,0,0,0,5.952-5.95,5.96,5.96,0,0,0-11.919-.087A6,6,0,0,0,96.532,13.9" transform="translate(-70.82 0)"/>
    </g>
  </g>
</svg>
