<svg xmlns="http://www.w3.org/2000/svg" xmlns:xlink="http://www.w3.org/1999/xlink" width="97.531" height="97.531" viewBox="0 0 97.531 97.531">
  <defs>
    <clipPath id="clip-path">
      <rect id="Rectangle_84" data-name="Rectangle 84" width="97.531" height="97.531" fill="#a9c490"/>
    </clipPath>
    <clipPath id="clip-path-2">
      <rect id="Rectangle_99" data-name="Rectangle 99" width="41.712" height="44.933" fill="#a9c490"/>
    </clipPath>
  </defs>
  <g id="Group_208" data-name="Group 208" transform="translate(-27.234 0)">
    <g id="Group_166" data-name="Group 166" transform="translate(27.234)">
      <g id="Group_155" data-name="Group 155" transform="translate(0 0)" clip-path="url(#clip-path)">
        <path id="Path_56" data-name="Path 56" d="M138.434,96.822A47.963,47.963,0,1,1,164.31,8.468a1.524,1.524,0,0,1-1.646,2.565,44.972,44.972,0,1,0,5.619,4.261,1.524,1.524,0,1,1,1.987-2.31l.038.034a47.963,47.963,0,0,1-31.875,83.8" transform="translate(-89.669 -0.094)" fill="#a9c490"/>
      </g>
    </g>
    <g id="Group_186" data-name="Group 186" transform="translate(55.144 26.299)">
      <g id="Group_185" data-name="Group 185" clip-path="url(#clip-path-2)">
        <path id="Path_105" data-name="Path 105" d="M20.9,44.933q-6.677,0-13.354,0a7.525,7.525,0,0,1-7.435-6.29,7.447,7.447,0,0,1,1.166-5.386q5.29-8.372,10.574-16.748.918-1.454,1.832-2.911a4.753,4.753,0,0,0,.733-2.6q-.008-3.679,0-7.357c0-.4,0-.4-.414-.4-.36,0-.72,0-1.079,0a1.662,1.662,0,0,1-1.69-1.633A1.61,1.61,0,0,1,12.9,0Q20.841,0,28.786,0A1.576,1.576,0,0,1,30.31.919a1.53,1.53,0,0,1-.169,1.66,1.606,1.606,0,0,1-1.3.658c-.427.012-.853.01-1.28,0-.2,0-.285.055-.284.271,0,2.578,0,5.156,0,7.734a4.42,4.42,0,0,0,.738,2.365q2.226,3.537,4.461,7.069,3.222,5.106,6.444,10.212c.594.941,1.213,1.868,1.763,2.834a7.139,7.139,0,0,1,.374,6.656,7.319,7.319,0,0,1-6.013,4.506,4.894,4.894,0,0,1-.75.045H20.9m-.084-3.242v0c4.46,0,8.92-.011,13.38.006a4.159,4.159,0,0,0,3.476-1.78,4.36,4.36,0,0,0,.058-4.974C36.5,33.05,35.3,31.132,34.1,29.217a.569.569,0,0,0-.556-.31q-12.426.012-24.852-.012a1.412,1.412,0,0,0-1.413.79c-1.093,1.832-2.274,3.61-3.388,5.43a4.118,4.118,0,0,0,.029,4.644A3.926,3.926,0,0,0,7.382,41.69h13.43m.036-16.029q5.333,0,10.666,0c.089,0,.208.045.26-.036s-.051-.165-.1-.238c-2.043-3.241-4.075-6.49-6.14-9.718a8.976,8.976,0,0,1-1.5-5.066c.029-2.276.008-4.552,0-6.829,0-.6.054-.53-.518-.531q-2.773-.006-5.546,0c-.328,0-.331,0-.331.342q0,3.653,0,7.306a8.2,8.2,0,0,1-.891,3.747c-.544,1.078-1.248,2.059-1.888,3.078q-2,3.186-4.007,6.373c-.294.467-.6.928-.9,1.389-.09.136-.074.2.1.187.075,0,.151,0,.226,0H20.848" transform="translate(0 -0.001)" fill="#a9c490"/>
      </g>
    </g>
  </g>
</svg>
