<svg id="Group_194" data-name="Group 194" xmlns="http://www.w3.org/2000/svg" xmlns:xlink="http://www.w3.org/1999/xlink" width="279.247" height="279.247" viewBox="0 0 279.247 279.247">
  <defs>
    <clipPath id="clip-path">
      <rect id="Rectangle_102" data-name="Rectangle 102" width="279.247" height="279.247" fill="#6b75a0"/>
    </clipPath>
    <clipPath id="clip-path-2">
      <rect id="Rectangle_99" data-name="Rectangle 99" width="117.548" height="126.625" fill="#fff"/>
    </clipPath>
  </defs>
  <g id="Group_193" data-name="Group 193" clip-path="url(#clip-path)">
    <path id="Path_111" data-name="Path 111" d="M151.71,264.771h0a111.06,111.06,0,1,1,111.06-111.06,111.06,111.06,0,0,1-111.06,111.06" transform="translate(-12.434 -13.045)" fill="#6b75a0"/>
    <path id="Path_112" data-name="Path 112" d="M140.587,278.024h0A137.437,137.437,0,1,1,278.024,140.587,137.437,137.437,0,0,1,140.587,278.024Z" transform="translate(-0.964 -0.964)" fill="none" stroke="#6b75a0" stroke-linecap="round" stroke-linejoin="round" stroke-width="6.3" stroke-dasharray="17.773 17.773"/>
  </g>
  <g id="Group_195" data-name="Group 195" transform="translate(80.849 76.311)">
    <g id="Group_185" data-name="Group 185" clip-path="url(#clip-path-2)">
      <path id="Path_105" data-name="Path 105" d="M58.888,126.624q-18.817,0-37.634,0A21.208,21.208,0,0,1,.3,108.9,20.985,20.985,0,0,1,3.587,93.719q14.908-23.593,29.8-47.2,2.587-4.1,5.163-8.2a13.4,13.4,0,0,0,2.066-7.314q-.023-10.367-.011-20.734c0-1.126-.006-1.13-1.167-1.136-1.014-.006-2.028.007-3.042-.005a4.682,4.682,0,0,1-4.763-4.6A4.538,4.538,0,0,1,36.343.007q22.389-.014,44.779,0a4.442,4.442,0,0,1,4.3,2.584,4.313,4.313,0,0,1-.477,4.677,4.526,4.526,0,0,1-3.653,1.854c-1.2.034-2.405.028-3.608.007-.556-.01-.8.154-.8.763.013,7.265-.01,14.53.009,21.8a12.457,12.457,0,0,0,2.081,6.666q6.274,9.968,12.571,19.923Q100.62,72.663,109.7,87.052c1.673,2.653,3.419,5.265,4.97,7.987a20.119,20.119,0,0,1,1.054,18.757c-3.2,7.437-9.037,11.478-16.944,12.7a13.793,13.793,0,0,1-2.114.128H58.888m-.237-9.135v.006c12.569,0,25.138-.03,37.706.017a11.722,11.722,0,0,0,9.8-5.016,12.286,12.286,0,0,0,.164-14.017c-3.463-5.342-6.833-10.745-10.209-16.144a1.6,1.6,0,0,0-1.567-.875q-35.019.033-70.036-.033a3.978,3.978,0,0,0-3.982,2.225c-3.08,5.162-6.41,10.174-9.548,15.3a11.6,11.6,0,0,0,.081,13.087,11.064,11.064,0,0,0,9.745,5.446q18.925,0,37.849,0m.1-45.172q15.029,0,30.058,0c.25,0,.585.127.732-.1.16-.251-.144-.466-.273-.67-5.757-9.135-11.483-18.29-17.3-27.385a25.3,25.3,0,0,1-4.222-14.278c.081-6.414.023-12.829.012-19.244,0-1.7.152-1.493-1.46-1.5q-7.816-.018-15.63-.008c-.923,0-.932.011-.932.965q0,10.294,0,20.588a23.1,23.1,0,0,1-2.511,10.56c-1.532,3.038-3.516,5.8-5.322,8.674Q36.256,58.9,30.61,67.877c-.829,1.317-1.685,2.616-2.543,3.914-.253.382-.208.55.273.527.212-.01.425,0,.637,0H58.753" transform="translate(0 0)" fill="#fff"/>
    </g>
  </g>
</svg>
